<?xml version="1.0" encoding="UTF-8"?>
<!DOCTYPE svg PUBLIC "-//W3C//DTD SVG 1.1//EN" "http://www.w3.org/Graphics/SVG/1.1/DTD/svg11.dtd">
<!-- Creator: CorelDRAW X6 -->
<svg xmlns="http://www.w3.org/2000/svg" xml:space="preserve" width="4.56031in" height="0.750437in" version="1.1" style="shape-rendering:geometricPrecision; text-rendering:geometricPrecision; image-rendering:optimizeQuality; fill-rule:evenodd; clip-rule:evenodd"
viewBox="0 0 5540 912"
 xmlns:xlink="http://www.w3.org/1999/xlink">
 <defs>
  <style type="text/css">
   <![CDATA[
    .fil1 {fill:#606062;fill-rule:nonzero}
    .fil0 {fill:url(#id0)}
   ]]>
  </style>
  <linearGradient id="id0" gradientUnits="userSpaceOnUse" x1="850.802" y1="81.5917" x2="-85.1309" y2="818.997">
   <stop offset="0" style="stop-color:#621370"/>
   <stop offset="1" style="stop-color:#CDB65A"/>
  </linearGradient>
 </defs>
 <g id="Layer_x0020_1">
  <metadata id="CorelCorpID_0Corel-Layer"/>
  <path class="fil0" d="M535 722l-116 4c-3,13 -60,93 -71,114l-26 0c-2,8 -12,23 -18,32 -6,9 -17,23 -19,34l449 0 0 -76 0 -145 0 -89c0,-61 0,-123 0,-184 0,-64 3,-120 3,-182 -9,5 -15,10 -24,16 -9,6 -17,10 -26,16l-125 82c-8,5 -17,13 -27,16l0 131 0 92 0 140zm-314 78l1 -1c0,0 -1,1 -1,1zm534 -698c0,7 4,1 2,0 0,0 -2,-7 -2,0zm-8 40c29,-52 -30,-157 -118,-140l-6 2c-8,0 -10,1 -16,3 -2,1 -5,2 -8,3 -1,0 -1,1 -2,1l-15 9c-9,6 -8,3 -12,11 -17,9 -13,17 -20,19 0,0 -1,0 -1,0l-2 0c0,0 -1,0 -1,0 3,15 -2,6 -2,21l-6 12c-17,66 36,142 122,133l13 -3c0,0 1,-1 2,-1 0,0 1,-1 2,-1 17,-2 27,-11 38,-19 12,-10 28,-25 32,-45l2 -5zm-534 694c9,-14 7,-41 4,-57 -4,-18 -14,-36 -24,-47 -26,-27 -66,-44 -100,-35l-4 1c-12,1 -22,5 -31,10 -1,0 -1,1 -2,1l-8 5c-8,5 -5,1 -10,8l-15 14c-8,10 -7,7 -10,7 0,0 -1,0 -1,0 0,0 -1,0 -1,0 3,15 -2,6 -2,21 -19,20 -14,115 63,140 28,9 37,5 66,3 8,-4 15,-5 24,-10 8,-4 16,-10 20,-16 7,-4 13,-10 19,-19 5,-7 8,-17 10,-26zm106 -37l-24 0c-6,21 -62,89 -63,106l34 0 48 -79 32 0c3,-11 25,-39 32,-50 10,-17 23,-33 32,-50l-42 0c-16,24 -31,50 -48,74zm428 -657c-1,-10 -6,-16 -12,-23l-98 -103c-11,-12 -3,-11 -14,-12m-407 431l0 -153 0 -104 105 0 88 0c2,-8 21,-36 27,-44l57 -88c6,-10 26,-38 27,-47l-502 0 0 12 0 166 0 155 0 341c31,-16 185,-123 198,-127l0 -111z"/>
  <path class="fil1" d="M1074 770l-140 0 0 -639 140 0 0 639zm302 -459l311 0c31,0 61,6 89,18 28,12 52,28 73,49 21,21 37,45 50,73 12,28 18,58 18,90l0 230 -141 0 0 -230c0,-25 -9,-46 -26,-64 -17,-17 -38,-26 -63,-26l-311 0c-25,0 -46,9 -64,26 -17,17 -26,39 -26,64l0 230 -140 0 0 -230c0,-32 6,-62 18,-90 12,-28 28,-52 49,-73 21,-21 45,-37 73,-49 28,-12 58,-18 90,-18zm778 0l233 311c9,13 22,20 37,20 15,0 27,-7 37,-20l233 -311 171 0 -294 394c-19,25 -41,44 -67,56 -26,12 -53,19 -80,19 -28,0 -54,-6 -80,-19 -26,-12 -48,-31 -67,-56l-294 -394 171 0zm919 459c-32,0 -62,-6 -90,-18 -28,-12 -52,-28 -73,-49 -21,-21 -37,-45 -49,-73 -12,-28 -18,-58 -18,-90 0,-32 6,-62 18,-90 12,-28 28,-52 49,-73 21,-21 45,-37 73,-49 28,-12 58,-18 90,-18l386 0c32,0 62,6 90,18 28,12 52,28 73,49 21,21 37,45 49,73 12,28 18,58 18,90 0,32 -6,62 -18,90 -12,28 -28,52 -49,73 -21,21 -45,37 -73,49 -28,12 -58,18 -90,18l-386 0zm0 -319c-25,0 -46,9 -64,26 -17,17 -26,39 -26,64 0,25 9,46 26,64 17,17 39,26 64,26l386 0c25,0 46,-9 64,-26 17,-17 26,-39 26,-64 0,-25 -9,-46 -26,-64 -17,-17 -39,-26 -64,-26l-386 0zm808 -199l-140 0 0 -82 140 0 0 82zm-140 59l140 0 0 459 -140 0 0 -459zm977 459l-541 0c-32,0 -62,-6 -90,-18 -28,-12 -52,-28 -73,-49 -21,-21 -37,-45 -49,-73 -12,-28 -18,-58 -18,-90 0,-32 6,-62 18,-90 12,-28 28,-52 49,-73 21,-21 45,-37 73,-49 28,-12 58,-18 90,-18l541 0 0 140 -541 0c-25,0 -46,9 -64,26 -17,17 -26,39 -26,64 0,25 9,46 26,64 17,17 39,26 64,26l541 0 0 140zm813 -140l0 140 -541 0c-32,0 -62,-6 -90,-18 -28,-12 -52,-28 -73,-49 -21,-21 -37,-45 -49,-73 -12,-28 -18,-58 -18,-90 0,-32 6,-62 18,-90 12,-28 28,-52 49,-73 21,-21 45,-37 73,-49 28,-12 58,-18 90,-18l456 0c19,0 37,5 51,15 15,10 26,23 33,38 7,15 10,32 9,50 -1,18 -8,34 -20,49l-134 168 147 0zm-541 -183c-12,0 -24,3 -35,8 -11,5 -20,12 -29,20 -8,9 -15,18 -19,30 -5,11 -7,23 -7,36 0,25 9,46 26,64 17,17 39,26 64,26l221 0 146 -183 -367 0z"/>
 </g>
</svg>
