<?xml version="1.0" encoding="UTF-8"?>
<!DOCTYPE svg PUBLIC "-//W3C//DTD SVG 1.1//EN" "http://www.w3.org/Graphics/SVG/1.1/DTD/svg11.dtd">
<!-- Creator: CorelDRAW X6 -->
<svg xmlns="http://www.w3.org/2000/svg" xml:space="preserve" width="11.074in" height="1.55741in" version="1.1" style="shape-rendering:geometricPrecision; text-rendering:geometricPrecision; image-rendering:optimizeQuality; fill-rule:evenodd; clip-rule:evenodd"
viewBox="0 0 10327 1452"
 xmlns:xlink="http://www.w3.org/1999/xlink">
 <defs>
  <style type="text/css">
   <![CDATA[
    .fil0 {fill:#373435;fill-rule:nonzero}
    .fil2 {fill:url(#id0)}
    .fil1 {fill:url(#id1)}
    .fil4 {fill:url(#id2)}
    .fil5 {fill:url(#id3)}
    .fil3 {fill:url(#id4)}
   ]]>
  </style>
  <linearGradient id="id0" gradientUnits="userSpaceOnUse" x1="148.355" y1="1267.23" x2="148.355" y2="958.87">
   <stop offset="0" style="stop-color:#64176F"/>
   <stop offset="1" style="stop-color:#CDB65A"/>
  </linearGradient>
  <linearGradient id="id1" gradientUnits="userSpaceOnUse" xlink:href="#id0" x1="660.953" y1="1255.29" x2="660.953" y2="318.294">
  </linearGradient>
  <linearGradient id="id2" gradientUnits="userSpaceOnUse" xlink:href="#id0" x1="1041.57" y1="128.778" x2="1044.25" y2="156.366">
  </linearGradient>
  <linearGradient id="id3" gradientUnits="userSpaceOnUse" xlink:href="#id0" x1="323.706" y1="-8.87037" x2="414.664" y2="942.55">
  </linearGradient>
  <linearGradient id="id4" gradientUnits="userSpaceOnUse" xlink:href="#id0" x1="882.403" y1="-4.62243" x2="912.304" y2="307.008">
  </linearGradient>
 </defs>
 <g id="Layer_x0020_1">
  <metadata id="CorelCorpID_0Corel-Layer"/>
  <polygon class="fil0" points="1372,102 1566,102 1810,833 2055,102 2248,102 2423,1150 2231,1150 2119,488 1897,1150 1721,1150 1500,488 1386,1150 1192,1150 "/>
  <polygon id="1" class="fil0" points="2477,375 2676,375 2877,861 3099,375 3298,375 2813,1433 2614,1433 2772,1093 "/>
  <polygon id="2" class="fil0" points="3394,1150 3539,102 3561,102 3987,962 4411,102 4427,102 4577,1150 4476,1150 4371,400 4000,1150 3972,1150 3597,394 3497,1150 "/>
  <path id="3" class="fil0" d="M5536 375l0 775 -99 0 0 -133c-42,51 -89,89 -141,114 -52,25 -109,38 -170,38 -109,0 -203,-40 -281,-119 -78,-80 -116,-176 -116,-290 0,-111 39,-207 117,-286 78,-79 172,-119 282,-119 63,0 121,13 172,40 51,27 97,67 135,121l0 -143 99 0zm-399 77c-55,0 -107,14 -153,41 -47,27 -84,65 -112,114 -28,49 -42,101 -42,156 0,54 14,106 42,156 28,50 65,88 113,116 47,28 98,42 152,42 54,0 106,-14 155,-41 49,-27 86,-64 113,-111 26,-47 39,-99 39,-158 0,-89 -29,-164 -89,-224 -59,-60 -131,-90 -217,-90z"/>
  <path id="4" class="fil0" d="M5723 375l102 0 0 113c30,-45 63,-78 96,-100 34,-22 69,-33 106,-33 28,0 57,9 89,26l-52 84c-21,-9 -38,-14 -53,-14 -33,0 -65,14 -96,41 -31,27 -54,70 -71,127 -12,44 -18,133 -18,268l0 262 -102 0 0 -775z"/>
  <polygon id="5" class="fil0" points="6200,76 6300,76 6300,689 6661,375 6806,375 6379,745 6831,1150 6689,1150 6300,800 6300,1150 6200,1150 "/>
  <path id="6" class="fil0" d="M7587 893l84 44c-28,54 -60,97 -96,130 -36,33 -77,58 -122,75 -45,17 -97,26 -154,26 -127,0 -226,-41 -297,-124 -72,-83 -107,-176 -107,-280 0,-98 30,-186 91,-262 77,-98 180,-146 308,-146 133,0 239,50 318,150 56,71 85,159 86,264l-701 0c2,90 31,163 87,220 56,57 125,86 207,86 40,0 78,-7 116,-20 37,-14 69,-32 96,-54 26,-23 55,-59 85,-109zm1 -209c-13,-53 -33,-96 -58,-127 -26,-32 -60,-57 -102,-77 -42,-19 -86,-29 -133,-29 -77,0 -142,24 -197,73 -40,36 -71,89 -91,160l581 0z"/>
  <polygon id="7" class="fil0" points="7967,86 8067,86 8067,375 8224,375 8224,461 8067,461 8067,1150 7967,1150 7967,461 7832,461 7832,375 7967,375 "/>
  <path id="8" class="fil0" d="M8411 57c23,0 42,8 58,24 16,16 24,36 24,58 0,22 -8,42 -24,58 -16,16 -35,24 -58,24 -22,0 -41,-8 -57,-24 -16,-16 -24,-36 -24,-58 0,-23 8,-42 24,-58 16,-16 35,-24 57,-24zm-49 318l99 0 0 775 -99 0 0 -775z"/>
  <path id="9" class="fil0" d="M8668 375l99 0 0 139c40,-53 84,-93 133,-119 49,-26 101,-39 159,-39 58,0 110,15 155,44 45,29 78,69 100,119 21,50 32,127 32,233l0 398 -99 0 0 -369c0,-89 -4,-149 -11,-179 -12,-51 -35,-90 -67,-116 -33,-26 -76,-39 -128,-39 -61,0 -115,20 -162,60 -48,40 -80,89 -95,148 -9,38 -14,108 -14,210l0 284 -99 0 0 -775z"/>
  <path id="10" class="fil0" d="M10228 375l99 0 0 617c0,108 -9,188 -28,238 -26,71 -71,126 -136,164 -64,38 -142,58 -233,58 -66,0 -126,-9 -179,-28 -53,-19 -96,-44 -129,-76 -33,-32 -64,-78 -92,-139l108 0c29,52 67,90 114,115 46,25 104,37 173,37 68,0 126,-13 172,-38 47,-25 80,-57 100,-95 20,-38 30,-100 30,-185l0 -40c-37,47 -83,84 -138,109 -54,26 -112,38 -172,38 -71,0 -138,-18 -201,-53 -63,-35 -111,-83 -145,-143 -34,-60 -51,-126 -51,-197 0,-72 18,-138 54,-200 36,-62 85,-111 148,-147 63,-36 129,-54 199,-54 58,0 112,12 162,36 50,24 99,63 145,118l0 -135zm-295 77c-56,0 -109,14 -157,41 -48,27 -86,65 -114,113 -27,48 -41,100 -41,156 0,85 28,155 85,211 57,55 131,83 221,83 92,0 165,-27 221,-82 56,-55 84,-127 84,-217 0,-58 -13,-110 -38,-156 -26,-46 -62,-82 -109,-108 -47,-27 -98,-40 -152,-40z"/>
 </g>
 <g id="Layer_x0020_1_0">
  <metadata id="CorelCorpID_1Corel-Layer"/>
  <g id="_238253824">
   <path class="fil1" d="M1014 950l0 -123c0,-86 0,-170 0,-256 0,-89 4,-166 4,-253 -13,7 -21,15 -33,22 -12,8 -23,15 -36,23l-172 113c-11,7 -23,18 -36,22l0 182 0 127 0 193 -161 7c-5,18 -84,129 -99,157l-36 0c-3,11 -17,32 -25,44 -8,13 -23,32 -27,47l622 0 0 -105 0 -200 0 1zm-710 158l1 -1c0,0 -1,1 -1,1zm135 0l-33 0c-8,29 -86,123 -88,147l48 0 66 -110 44 0c4,-15 34,-54 44,-70 14,-24 31,-46 44,-70l-58 0c-23,34 -43,69 -66,103l0 0z"/>
   <path class="fil2" d="M20 1036l-3 -8c-1,21 -2,5 3,12 -6,9 -7,10 -8,22l-11 36c-5,76 34,137 99,157 38,12 52,7 92,4 12,-6 20,-5 34,-13 11,-7 22,-14 29,-23 12,-8 17,-11 26,-26 7,-11 11,-23 14,-36 3,-3 2,-1 5,-7 0,-1 3,-9 3,-9 1,-7 1,-17 1,-25l0 -7c-4,-50 -15,-81 -53,-113 -30,-25 -82,-41 -119,-33 -9,2 -3,0 -8,3 -14,0 -31,6 -40,11 -1,1 -1,1 -3,1l-5 3c-21,13 -15,6 -22,17 -14,8 -18,16 -28,27 -7,8 5,-3 -5,5l1 0z"/>
   <g>
    <path class="fil3" d="M758 73l-3 -8c-1,21 -2,5 3,12 -6,9 -7,10 -8,22 -10,11 -11,23 -12,40 -2,76 34,133 102,155 20,6 46,9 70,7l23 -7c23,-2 36,-14 52,-25 26,-23 45,-52 52,-86 21,-99 -62,-183 -160,-178 -29,7 -42,4 -70,23 -11,7 -15,6 -21,18 -10,5 -9,5 -17,14 -3,3 -5,7 -7,8 -7,8 1,1 -7,7l1 -1z"/>
    <path class="fil4" d="M1043 143c0,14 0,-14 0,0z"/>
    <path class="fil5" d="M326 249l237 0c3,-11 29,-50 37,-62l79 -122c9,-13 36,-52 37,-65l-695 0 0 77 0 169 0 215 0 473c43,-23 256,-170 275,-176l0 -154 0 -211 0 -143 29 0 1 -1z"/>
   </g>
  </g>
 </g>
</svg>
