<?xml version="1.0" encoding="UTF-8"?>
<!DOCTYPE svg PUBLIC "-//W3C//DTD SVG 1.1//EN" "http://www.w3.org/Graphics/SVG/1.1/DTD/svg11.dtd">
<!-- Creator: CorelDRAW X6 -->
<svg xmlns="http://www.w3.org/2000/svg" xml:space="preserve" width="7.3in" height="3in" version="1.1" style="shape-rendering:geometricPrecision; text-rendering:geometricPrecision; image-rendering:optimizeQuality; fill-rule:evenodd; clip-rule:evenodd"
viewBox="0 0 7300 3000"
 xmlns:xlink="http://www.w3.org/1999/xlink">
 <defs>
  <style type="text/css">
   <![CDATA[
    .fil5 {fill:#606062;fill-rule:nonzero}
    .fil0 {fill:url(#id0)}
    .fil1 {fill:url(#id1)}
    .fil3 {fill:url(#id2)}
    .fil4 {fill:url(#id3)}
    .fil2 {fill:url(#id4)}
   ]]>
  </style>
  <linearGradient id="id0" gradientUnits="userSpaceOnUse" x1="967.067" y1="2266.15" x2="967.067" y2="1252.02">
   <stop offset="0" style="stop-color:#64176F"/>
   <stop offset="1" style="stop-color:#CDB65A"/>
  </linearGradient>
  <linearGradient id="id1" gradientUnits="userSpaceOnUse" xlink:href="#id0" x1="412.295" y1="2278.94" x2="412.295" y2="1945.3">
  </linearGradient>
  <linearGradient id="id2" gradientUnits="userSpaceOnUse" xlink:href="#id0" x1="1379.81" y1="1047.19" x2="1382.65" y2="1076.64">
  </linearGradient>
  <linearGradient id="id3" gradientUnits="userSpaceOnUse" xlink:href="#id0" x1="602.969" y1="897.669" x2="701.693" y2="1927.25">
  </linearGradient>
  <linearGradient id="id4" gradientUnits="userSpaceOnUse" xlink:href="#id0" x1="1208.19" y1="901.528" x2="1240.55" y2="1238.98">
  </linearGradient>
 </defs>
 <g id="Layer_x0020_1">
  <metadata id="CorelCorpID_0Corel-Layer"/>
  <g id="_235812904">
   <g>
    <path class="fil0" d="M1350 1936l0 -134c0,-92 0,-185 0,-277 0,-96 4,-180 4,-273 -14,7 -23,15 -36,24 -13,9 -25,16 -39,25l-187 122c-12,7 -25,20 -40,24l0 198 0 137 0 209 -174 7c-5,19 -90,139 -107,170l-40 0c-3,12 -19,35 -27,48 -9,14 -25,35 -28,51l673 0 0 -114 0 -216zm-769 172l1 -1c0,0 -2,1 -1,1zm147 0l-36 0c-8,31 -93,133 -95,158l52 0 71 -119 48 0c4,-16 37,-59 47,-75 15,-26 34,-49 48,-75l-63 0c-24,36 -47,75 -71,111z"/>
    <path class="fil1" d="M273 2028l-3 -9c-2,23 -2,6 3,13 -6,9 -8,11 -8,24l-12 40c-5,82 37,148 107,170 41,13 56,8 99,4 13,-7 21,-5 36,-15 11,-7 24,-15 31,-25 13,-9 19,-12 28,-28 7,-11 12,-25 15,-40 3,-4 2,-1 5,-8 0,0 3,-9 3,-9 1,-7 1,-18 2,-26l0 -8c-4,-54 -17,-87 -57,-122 -33,-27 -89,-45 -129,-36 -9,2 -3,0 -9,3 -15,0 -33,6 -43,12 -1,0 -2,1 -3,2l-5 3c-22,14 -17,7 -24,18 -15,9 -19,18 -30,30 -8,9 6,-3 -6,6z"/>
    <g>
     <path class="fil2" d="M1073 987l-3 -9c-2,23 -2,6 3,13 -6,9 -8,11 -8,24 -11,11 -12,25 -13,43 -2,82 36,144 111,167 22,7 49,10 75,7l24 -8c25,-2 39,-15 57,-28 28,-25 49,-56 57,-93 23,-108 -67,-198 -173,-193 -31,7 -45,5 -75,25 -11,7 -17,7 -22,19 -11,6 -10,6 -18,15 -3,4 -5,7 -7,9 -7,8 1,1 -7,8z"/>
     <path class="fil3" d="M1381 1062c0,15 0,-15 0,0z"/>
     <path class="fil4" d="M605 1177l257 0c3,-12 32,-54 40,-67l86 -132c9,-15 39,-56 40,-71l-753 0 0 83 0 183 0 232 0 512c46,-25 277,-185 297,-190l0 -167 0 -228 0 -155 32 0z"/>
    </g>
   </g>
   <path class="fil5" d="M2104 1659l663 0c39,0 72,-14 100,-41 27,-27 41,-61 41,-100 0,-39 -14,-72 -41,-100 -27,-27 -61,-41 -100,-41l-909 0 0 784 -220 0 0 -1004 1128 -2c50,0 97,9 141,28 44,19 82,45 114,78 32,33 58,71 77,115 19,44 28,91 28,141 0,50 -9,97 -28,141 -19,44 -45,82 -77,114 -32,32 -71,58 -114,77 -44,19 -91,28 -141,28l-128 0 478 282 -427 0 -623 -368c-16,-9 -26,-20 -31,-36 -5,-15 -5,-30 -2,-45 4,-15 12,-27 24,-38 12,-10 27,-16 46,-16zm2282 282l0 220 -850 0c-50,0 -97,-9 -141,-28 -44,-19 -82,-45 -114,-77 -32,-32 -58,-71 -77,-114 -19,-44 -28,-91 -28,-141 0,-50 9,-97 28,-141 19,-44 45,-82 77,-114 32,-32 71,-58 114,-77 44,-19 91,-28 141,-28l716 0c31,0 57,8 81,24 23,16 40,36 51,60 11,24 16,50 14,78 -2,28 -13,54 -32,77l-211 264 231 0zm-850 -288c-20,0 -38,4 -55,12 -17,8 -32,19 -45,32 -13,13 -23,29 -30,47 -7,18 -11,36 -11,56 0,39 14,72 41,100 27,27 61,41 100,41l348 0 229 -288 -577 0zm1872 507l-575 0c-50,0 -97,-9 -141,-28 -44,-19 -82,-45 -114,-77 -32,-32 -58,-71 -77,-114 -19,-44 -28,-91 -28,-141 0,-50 9,-97 28,-141 19,-44 45,-82 77,-114 32,-32 71,-58 114,-77 44,-19 91,-28 141,-28l566 0c50,0 97,9 141,28 44,19 82,45 114,77 32,32 58,71 77,114 19,44 28,91 28,141l0 361 -220 0 0 -361c0,-39 -14,-72 -41,-100 -27,-27 -61,-41 -100,-41l-566 0c-39,0 -72,14 -100,41 -27,27 -41,61 -41,100 0,39 14,72 41,100 27,27 61,41 100,41l575 0 0 220zm1485 -943l220 0 0 582c0,50 -9,97 -28,141 -19,44 -45,82 -77,114 -32,32 -71,58 -114,77 -44,19 -91,28 -141,28l-566 0c-50,0 -97,-9 -141,-28 -44,-19 -82,-45 -114,-77 -32,-32 -58,-71 -77,-114 -19,-44 -28,-91 -28,-141 0,-50 9,-97 28,-141 19,-44 45,-82 77,-114 32,-32 71,-58 114,-77 44,-19 91,-28 141,-28l575 0 0 220 -575 0c-39,0 -72,14 -100,41 -27,27 -41,61 -41,100 0,39 14,72 41,100 27,27 61,41 100,41l566 0c39,0 72,-14 100,-41 27,-27 41,-61 41,-100l0 -582z"/>
  </g>
 </g>
</svg>
