<?xml version="1.0" encoding="UTF-8"?>
<!DOCTYPE svg PUBLIC "-//W3C//DTD SVG 1.1//EN" "http://www.w3.org/Graphics/SVG/1.1/DTD/svg11.dtd">
<!-- Creator: CorelDRAW X6 -->
<svg xmlns="http://www.w3.org/2000/svg" xml:space="preserve" width="10.7526in" height="1.1393in" version="1.1" style="shape-rendering:geometricPrecision; text-rendering:geometricPrecision; image-rendering:optimizeQuality; fill-rule:evenodd; clip-rule:evenodd"
viewBox="0 0 10955 1161"
 xmlns:xlink="http://www.w3.org/1999/xlink">
 <defs>
  <style type="text/css">
   <![CDATA[
    .fil0 {fill:url(#id0);fill-rule:nonzero}
   ]]>
  </style>
  <linearGradient id="id0" gradientUnits="userSpaceOnUse" x1="-0" y1="580.398" x2="10955.4" y2="580.398">
   <stop offset="0" style="stop-color:#36AFEB"/>
   <stop offset="0.270588" style="stop-color:#C7EAFB"/>
   <stop offset="0.768627" style="stop-color:#46B5EC"/>
   <stop offset="1" style="stop-color:#FFCC29"/>
  </linearGradient>
 </defs>
 <g id="Layer_x0020_1">
  <metadata id="CorelCorpID_0Corel-Layer"/>
  <path class="fil0" d="M1210 1161l-292 -292 -269 0 -292 292 -356 0 417 -417 -417 -417 356 0 292 292 269 0 292 -292 356 0 -417 417 417 417 -356 0zm479 -1161l1504 0 0 254 -612 0 0 907 -280 0 0 -907 -612 0 0 -254zm2762 907l0 254 -983 0c-58,0 -112,-11 -163,-33 -51,-22 -95,-52 -132,-89 -37,-37 -67,-82 -89,-132 -22,-51 -33,-105 -33,-163 0,-58 11,-112 33,-163 22,-51 52,-95 89,-132 37,-37 82,-67 132,-89 51,-22 105,-33 163,-33l828 0c35,0 66,9 93,28 27,18 47,41 59,69 13,28 18,58 16,90 -2,32 -14,62 -37,89l-244 305 267 0zm-983 -333c-23,0 -44,5 -64,14 -20,9 -37,22 -52,37 -15,16 -26,34 -35,54 -8,20 -13,42 -13,65 0,45 16,84 48,115 32,32 70,48 115,48l402 0 265 -333 -667 0zm1500 -248l566 0c56,0 110,11 161,33 51,22 95,52 133,89 38,37 68,82 90,132 22,51 33,105 33,163l0 417 -256 0 0 -417c0,-45 -16,-84 -47,-115 -31,-32 -69,-48 -114,-48l-566 0c-45,0 -84,16 -115,48 -32,32 -48,70 -48,115l0 417 -254 0 0 -417c0,-58 11,-112 33,-163 22,-51 52,-95 89,-132 37,-37 82,-67 132,-89 51,-22 105,-33 163,-33zm1104 587l705 0 -250 -311c-23,-28 -35,-58 -38,-90 -3,-32 2,-61 16,-89 13,-28 34,-50 60,-69 27,-18 58,-28 93,-28l835 0 0 248 -674 0 250 311c23,28 35,58 37,90 2,32 -3,61 -16,89 -13,28 -32,50 -59,69 -27,18 -58,28 -93,28l-866 0 0 -248zm1733 -695l-254 0 0 -148 254 0 0 148zm-254 108l254 0 0 835 -254 0 0 -835zm792 835c-58,0 -112,-11 -163,-33 -51,-22 -95,-52 -132,-89 -37,-37 -67,-82 -89,-132 -22,-51 -33,-105 -33,-163 0,-58 11,-112 33,-163 22,-51 52,-95 89,-132 37,-37 82,-67 132,-89 51,-22 105,-33 163,-33l701 0c58,0 112,11 163,33 51,22 95,52 132,89 37,37 67,82 89,132 22,51 33,105 33,163 0,58 -11,112 -33,163 -22,51 -52,95 -89,132 -37,37 -82,67 -132,89 -51,22 -105,33 -163,33l-701 0zm0 -580c-45,0 -84,16 -115,48 -32,32 -48,70 -48,115 0,45 16,84 48,115 32,32 70,48 115,48l701 0c45,0 84,-16 115,-48 32,-32 48,-70 48,-115 0,-45 -16,-84 -48,-115 -32,-32 -70,-48 -115,-48l-701 0zm1631 -254l566 0c56,0 110,11 161,33 51,22 95,52 133,89 38,37 68,82 90,132 22,51 33,105 33,163l0 417 -256 0 0 -417c0,-45 -16,-84 -47,-115 -31,-32 -69,-48 -114,-48l-566 0c-45,0 -84,16 -115,48 -32,32 -48,70 -48,115l0 417 -254 0 0 -417c0,-58 11,-112 33,-163 22,-51 52,-95 89,-132 37,-37 82,-67 132,-89 51,-22 105,-33 163,-33z"/>
 </g>
</svg>
